# xmcd CD database file
#
# Track frame offsets:
#	150
#	15020
#	28061
#	39309
#	54017
#	68984
#	80597
#	94447
#	106593
#	118225
#	132774
#	144677
#	159999
#	173806
#	186557
#	199974
#	213927
#	228847
#	243284
#	257303
#	268482
#	283346
#	294935
#	310048
#	324795
#
# Disc length: 4525 seconds
#
# Revision: 0
# Processed by: cddbd v1.5.2PL0 Copyright (c) Steve Scherf et al.
# Submitted via: CDex 1.51
#
DISCID=5b11ab19
DTITLE=Ella Fitzgerald - Autograph Collection
DYEAR=2006
DGENRE=Jazz
TTITLE0=How High the Moon
TTITLE1=Lullaby of Birdland
TTITLE2=You're Breakin' in a New Heart (While Yue're Breaking Mine)
TTITLE3=The Firm Sauce
TTITLE4=I've Got the Hole World on a String
TTITLE5=That Old Black Magic
TTITLE6=Hard Hearted Hannah
TTITLE7=In the Evening (When the Sun Goes Down)
TTITLE8=Robbins' Nest
TTITLE9=Guilty
TTITLE10=It's Only a Paper Moon
TTITLE11=Peas and Rice
TTITLE12=Gulf Coast Blues
TTITLE13=Blue Lou
TTITLE14=You Turned the Tables on Me
TTITLE15=If You Ever Change Your Mind
TTITLE16=I'm Making Believe
TTITLE17=You're Gonna Lose Your Gal
TTITLE18=Keep Cool, Fool
TTITLE19=Flying Home
TTITLE20=A Sunday Kind of Love
TTITLE21=I Can't Believe That You're in Love With Me
TTITLE22=I Didn't Mean a Word I Said
TTITLE23=Ain't Nobody's Buisness But My Own
TTITLE24=Rough Ridin'
EXTD=YEAR: 2006
EXTT0=
EXTT1=
EXTT2=
EXTT3=
EXTT4=
EXTT5=
EXTT6=
EXTT7=
EXTT8=
EXTT9=
EXTT10=
EXTT11=
EXTT12=
EXTT13=
EXTT14=
EXTT15=
EXTT16=
EXTT17=
EXTT18=
EXTT19=
EXTT20=
EXTT21=
EXTT22=
EXTT23=
EXTT24=
PLAYORDER=
